<?xml version="1.0" encoding="UTF-8" standalone="no"?>
<svg
   xmlns:dc="http://purl.org/dc/elements/1.1/"
   xmlns:cc="http://creativecommons.org/ns#"
   xmlns:rdf="http://www.w3.org/1999/02/22-rdf-syntax-ns#"
   xmlns:svg="http://www.w3.org/2000/svg"
   xmlns="http://www.w3.org/2000/svg"
   viewBox="0 0 960 960"
   height="960"
   width="960"
   xml:space="preserve"
   id="svg2"
   version="1.1"><metadata
     id="metadata8"><rdf:RDF><cc:Work
         rdf:about=""><dc:format>image/svg+xml</dc:format><dc:type
           rdf:resource="http://purl.org/dc/dcmitype/StillImage" /></cc:Work></rdf:RDF></metadata><defs
     id="defs6"><clipPath
       id="clipPath18"
       clipPathUnits="userSpaceOnUse"><path
         id="path16"
         d="M 0,720 H 720 V 0 H 0 Z" /></clipPath></defs><g
     transform="matrix(1.3333333,0,0,-1.3333333,0,960)"
     id="g10"><g
       id="g12"><g
         clip-path="url(#clipPath18)"
         id="g14"><path
           id="path20"
           style="fill:none;stroke:#3f2a56;stroke-width:0.80000001;stroke-linecap:round;stroke-linejoin:round;stroke-miterlimit:10;stroke-dasharray:none;stroke-opacity:1"
           d="M 0,0 H 668.757" /><g
           transform="translate(668.3291,6.8369)"
           id="g22"><path
             id="path24"
             style="fill:none;stroke:#3f2c57;stroke-width:0.80000001;stroke-linecap:round;stroke-linejoin:round;stroke-miterlimit:10;stroke-dasharray:none;stroke-opacity:1"
             d="m 0,0 c 0,0 -36.572,-0.168 -36.747,-0.195 -0.139,-0.021 -11.489,0.043 -11.532,0.139 l -22.216,0.534 -53.889,-1.031 c -0.177,-0.161 -19.12,-0.037 -19.088,0.15 0.029,0.17 -85,2.196 -85,2.196 0,0 -29.109,-0.289 -29.269,-0.385 -0.16,-0.096 -15.511,-0.08 -15.596,0.075 -0.086,0.155 -58.594,1.357 -58.594,1.357 h -0.016 c 0,0 -58.525,-1.202 -58.611,-1.357 -0.085,-0.155 -15.461,-0.171 -15.622,-0.075 -0.16,0.096 -29.282,0.385 -29.282,0.385 0,0 -85.122,-2.026 -85.093,-2.196 0.032,-0.187 -18.935,-0.311 -19.112,-0.15 l -53.995,1.031 -22.225,-0.534 c -0.043,-0.096 -11.422,-0.161 -11.561,-0.139 C -627.622,-0.168 -665.462,0 -665.462,0" /></g><g
           transform="translate(667.9009,13.6738)"
           id="g26"><path
             id="path28"
             style="fill:none;stroke:#402d59;stroke-width:0.80000001;stroke-linecap:round;stroke-linejoin:round;stroke-miterlimit:10;stroke-dasharray:none;stroke-opacity:1"
             d="m 0,0 c 0,0 -36.722,-0.336 -37.071,-0.39 -0.28,-0.043 -11.489,0.086 -11.575,0.279 l -22.073,1.067 -53.942,-2.062 c -0.354,-0.321 -19.154,-0.075 -19.09,0.299 0.058,0.341 -83.106,4.393 -83.106,4.393 0,0 -29.117,-0.577 -29.438,-0.77 -0.32,-0.192 -15.503,-0.16 -15.673,0.149 -0.172,0.311 -58.314,2.715 -58.314,2.715 h -0.014 c 0,0 -58.16,-2.405 -58.331,-2.715 -0.171,-0.309 -15.378,-0.341 -15.699,-0.149 -0.321,0.193 -29.451,0.77 -29.451,0.77 0,0 -83.256,-4.052 -83.198,-4.393 0.064,-0.374 -18.76,-0.62 -19.112,-0.299 l -54.047,2.062 -22.083,-1.067 c -0.086,-0.193 -11.323,-0.323 -11.602,-0.279 -0.349,0.053 -38.348,0.39 -38.348,0.39" /></g><g
           transform="translate(667.4727,20.5107)"
           id="g30"><path
             id="path32"
             style="fill:none;stroke:#402f5a;stroke-width:0.80000001;stroke-linecap:round;stroke-linejoin:round;stroke-miterlimit:10;stroke-dasharray:none;stroke-opacity:1"
             d="m 0,0 c 0,0 -36.871,-0.504 -37.396,-0.585 -0.419,-0.064 -11.487,0.128 -11.616,0.418 l -21.931,1.602 -53.995,-3.094 c -0.53,-0.482 -19.189,-0.112 -19.093,0.449 0.087,0.511 -81.21,6.589 -81.21,6.589 0,0 -29.127,-0.865 -29.609,-1.155 -0.48,-0.288 -15.493,-0.239 -15.749,0.224 -0.257,0.466 -58.035,4.073 -58.035,4.073 h -0.012 c 0,0 -57.794,-3.608 -58.051,-4.073 -0.256,-0.464 -15.294,-0.512 -15.776,-0.224 -0.482,0.29 -29.619,1.155 -29.619,1.155 0,0 -81.389,-6.078 -81.302,-6.589 0.096,-0.561 -18.586,-0.931 -19.115,-0.449 l -54.098,3.094 -21.94,-1.602 c -0.129,-0.29 -11.225,-0.483 -11.643,-0.418 -0.524,0.08 -38.683,0.585 -38.683,0.585" /></g><g
           transform="translate(667.0444,27.3477)"
           id="g34"><path
             id="path36"
             style="fill:none;stroke:#40315c;stroke-width:0.80000001;stroke-linecap:round;stroke-linejoin:round;stroke-miterlimit:10;stroke-dasharray:none;stroke-opacity:1"
             d="m 0,0 c 0,0 -37.021,-0.672 -37.721,-0.78 -0.558,-0.086 -11.486,0.172 -11.657,0.558 l -21.789,2.135 -54.047,-4.125 c -0.708,-0.642 -19.224,-0.149 -19.097,0.599 0.117,0.681 -79.315,8.785 -79.315,8.785 0,0 -29.136,-1.154 -29.778,-1.54 -0.639,-0.384 -15.485,-0.319 -15.825,0.299 -0.343,0.621 -57.756,5.429 -57.756,5.429 h -0.01 c 0,0 -57.43,-4.809 -57.772,-5.429 -0.341,-0.619 -15.21,-0.683 -15.852,-0.299 -0.642,0.386 -29.788,1.54 -29.788,1.54 0,0 -79.522,-8.105 -79.406,-8.785 0.127,-0.749 -18.412,-1.241 -19.117,-0.599 l -54.15,4.125 -21.798,-2.135 c -0.171,-0.386 -11.126,-0.645 -11.684,-0.558 -0.698,0.106 -39.016,0.78 -39.016,0.78" /></g><g
           transform="translate(666.6162,34.1846)"
           id="g38"><path
             id="path40"
             style="fill:none;stroke:#40325d;stroke-width:0.80000001;stroke-linecap:round;stroke-linejoin:round;stroke-miterlimit:10;stroke-dasharray:none;stroke-opacity:1"
             d="m 0,0 c 0,0 -37.171,-0.84 -38.046,-0.975 -0.698,-0.108 -11.485,0.214 -11.699,0.697 l -21.646,2.669 -54.1,-5.156 c -0.884,-0.803 -19.259,-0.187 -19.099,0.749 0.145,0.851 -77.421,10.982 -77.421,10.982 0,0 -29.144,-1.444 -29.947,-1.926 -0.8,-0.48 -15.477,-0.399 -15.902,0.374 -0.429,0.776 -57.476,6.787 -57.476,6.787 h -0.008 c 0,0 -57.065,-6.013 -57.492,-6.787 -0.427,-0.774 -15.126,-0.854 -15.93,-0.374 -0.802,0.482 -29.957,1.926 -29.957,1.926 0,0 -77.654,-10.132 -77.51,-10.982 0.16,-0.936 -18.237,-1.552 -19.119,-0.749 l -54.201,5.156 -21.655,-2.669 c -0.214,-0.483 -11.028,-0.806 -11.725,-0.697 -0.872,0.133 -39.35,0.975 -39.35,0.975" /></g><g
           transform="translate(666.188,41.021)"
           id="g42"><path
             id="path44"
             style="fill:none;stroke:#41345e;stroke-width:0.80000001;stroke-linecap:round;stroke-linejoin:round;stroke-miterlimit:10;stroke-dasharray:none;stroke-opacity:1"
             d="m 0,0 c 0,0 -37.321,-1.008 -38.371,-1.17 -0.837,-0.129 -11.483,0.258 -11.74,0.837 l -21.504,3.202 -54.152,-6.186 c -1.062,-0.964 -19.294,-0.225 -19.103,0.898 0.175,1.021 -75.526,13.178 -75.526,13.178 0,0 -29.153,-1.731 -30.117,-2.311 -0.959,-0.575 -15.467,-0.478 -15.977,0.449 -0.515,0.931 -57.198,8.144 -57.198,8.144 h -0.005 c 0,0 -56.7,-7.214 -57.213,-8.144 -0.512,-0.929 -15.042,-1.024 -16.006,-0.449 -0.963,0.58 -30.126,2.311 -30.126,2.311 0,0 -75.788,-12.157 -75.614,-13.178 0.192,-1.123 -18.063,-1.862 -19.121,-0.898 l -54.253,6.186 -21.512,-3.202 c -0.257,-0.579 -10.929,-0.967 -11.766,-0.837 -1.047,0.16 -39.684,1.17 -39.684,1.17" /></g><g
           transform="translate(665.7598,47.8579)"
           id="g46"><path
             id="path48"
             style="fill:none;stroke:#413560;stroke-width:0.80000001;stroke-linecap:round;stroke-linejoin:round;stroke-miterlimit:10;stroke-dasharray:none;stroke-opacity:1"
             d="m 0,0 c 0,0 -37.47,-1.176 -38.696,-1.365 -0.976,-0.15 -11.482,0.301 -11.782,0.976 l -21.361,3.736 -54.204,-7.218 c -1.239,-1.124 -19.33,-0.261 -19.106,1.049 0.203,1.191 -73.631,15.374 -73.631,15.374 0,0 -29.162,-2.02 -30.287,-2.696 -1.119,-0.671 -15.458,-0.558 -16.054,0.524 -0.601,1.086 -56.919,9.501 -56.919,9.501 h -0.003 c 0,0 -56.334,-8.417 -56.933,-9.501 -0.598,-1.084 -14.958,-1.195 -16.082,-0.524 -1.125,0.676 -30.295,2.696 -30.295,2.696 0,0 -73.921,-14.183 -73.719,-15.374 0.224,-1.311 -17.888,-2.173 -19.122,-1.049 l -54.305,7.218 -21.369,-3.736 c -0.299,-0.675 -10.831,-1.128 -11.808,-0.976 C -606.897,-1.179 -645.693,0 -645.693,0" /></g><g
           transform="translate(665.3315,54.6948)"
           id="g50"><path
             id="path52"
             style="fill:none;stroke:#413761;stroke-width:0.80000001;stroke-linecap:round;stroke-linejoin:round;stroke-miterlimit:10;stroke-dasharray:none;stroke-opacity:1"
             d="m 0,0 c 0,0 -37.62,-1.344 -39.021,-1.56 -1.116,-0.171 -11.48,0.343 -11.823,1.116 l -21.219,4.269 -54.257,-8.249 c -1.416,-1.284 -19.364,-0.299 -19.109,1.198 0.233,1.362 -71.736,17.572 -71.736,17.572 0,0 -29.171,-2.309 -30.456,-3.082 -1.279,-0.767 -15.45,-0.638 -16.13,0.599 -0.687,1.241 -56.64,10.858 -56.64,10.858 h -10e-4 c 0,0 -55.97,-9.618 -56.653,-10.858 -0.684,-1.238 -14.874,-1.366 -16.16,-0.599 -1.284,0.773 -30.463,3.082 -30.463,3.082 0,0 -72.055,-16.211 -71.823,-17.572 0.256,-1.497 -17.714,-2.482 -19.125,-1.198 l -54.355,8.249 -21.227,-4.269 c -0.343,-0.773 -10.733,-1.29 -11.849,-1.116 -1.396,0.213 -40.351,1.56 -40.351,1.56" /></g><g
           transform="translate(664.9033,61.5317)"
           id="g54"><path
             id="path56"
             style="fill:none;stroke:#423962;stroke-width:0.80000001;stroke-linecap:round;stroke-linejoin:round;stroke-miterlimit:10;stroke-dasharray:none;stroke-opacity:1"
             d="m 0,0 c 0,0 -37.77,-1.512 -39.345,-1.755 -1.256,-0.193 -11.48,0.386 -11.866,1.255 l -21.076,4.804 -54.31,-9.281 c -1.592,-1.445 -19.399,-0.336 -19.111,1.348 0.262,1.532 -69.841,19.768 -69.841,19.768 0,0 -29.181,-2.597 -30.626,-3.467 -1.439,-0.863 -15.442,-0.717 -16.207,0.674 -0.773,1.396 -56.36,12.216 -56.36,12.216 v 0 c 0,0 -55.604,-10.822 -56.373,-12.216 -0.769,-1.394 -14.79,-1.537 -16.236,-0.674 -1.445,0.87 -30.632,3.467 -30.632,3.467 0,0 -70.188,-18.237 -69.928,-19.768 0.289,-1.685 -17.539,-2.793 -19.126,-1.348 l -54.407,9.281 -21.084,-4.804 c -0.386,-0.869 -10.635,-1.451 -11.89,-1.255 -1.57,0.239 -40.685,1.755 -40.685,1.755" /></g><g
           transform="translate(664.4751,68.3687)"
           id="g58"><path
             id="path60"
             style="fill:none;stroke:#423a64;stroke-width:0.80000001;stroke-linecap:round;stroke-linejoin:round;stroke-miterlimit:10;stroke-dasharray:none;stroke-opacity:1"
             d="m 0,0 c 0,0 -37.92,-1.681 -39.67,-1.95 -1.395,-0.215 -11.478,0.429 -11.907,1.395 L -72.511,4.782 -126.874,-5.53 c -1.769,-1.606 -19.433,-0.373 -19.113,1.498 0.29,1.702 -67.947,21.964 -67.947,21.964 0,0 -29.19,-2.886 -30.796,-3.852 -1.599,-0.959 -15.432,-0.797 -16.283,0.748 -0.858,1.552 -56.081,13.573 -56.081,13.573 h 0.003 c 0,0 -55.239,-12.023 -56.094,-13.573 -0.854,-1.548 -14.706,-1.707 -16.313,-0.748 -1.606,0.966 -30.801,3.852 -30.801,3.852 0,0 -68.32,-20.263 -68.031,-21.964 0.32,-1.872 -17.365,-3.104 -19.128,-1.498 l -54.459,10.312 -20.941,-5.337 c -0.429,-0.966 -10.537,-1.612 -11.932,-1.395 -1.744,0.266 -41.018,1.95 -41.018,1.95" /></g><g
           transform="translate(664.0469,75.2056)"
           id="g62"><path
             id="path64"
             style="fill:none;stroke:#423c65;stroke-width:0.80000001;stroke-linecap:round;stroke-linejoin:round;stroke-miterlimit:10;stroke-dasharray:none;stroke-opacity:1"
             d="m 0,0 c 0,0 -38.07,-1.849 -39.995,-2.145 -1.535,-0.236 -11.477,0.472 -11.949,1.534 L -72.735,5.26 -127.15,-6.083 c -1.946,-1.767 -19.469,-0.411 -19.117,1.647 0.32,1.873 -66.051,24.161 -66.051,24.161 0,0 -29.199,-3.175 -30.966,-4.237 -1.759,-1.055 -15.424,-0.877 -16.36,0.823 -0.943,1.707 -55.801,14.931 -55.801,14.931 h 0.005 c 0,0 -54.874,-13.226 -55.815,-14.931 -0.939,-1.703 -14.622,-1.878 -16.389,-0.823 -1.767,1.062 -30.97,4.237 -30.97,4.237 0,0 -66.453,-22.289 -66.136,-24.161 0.353,-2.059 -17.19,-3.414 -19.129,-1.647 L -558.39,5.26 -579.189,-0.611 c -0.47,-1.062 -10.437,-1.773 -11.972,-1.534 C -593.08,-1.853 -632.513,0 -632.513,0" /></g><g
           transform="translate(663.6191,82.0425)"
           id="g66"><path
             id="path68"
             style="fill:none;stroke:#423e67;stroke-width:0.80000001;stroke-linecap:round;stroke-linejoin:round;stroke-miterlimit:10;stroke-dasharray:none;stroke-opacity:1"
             d="m 0,0 c 0,0 -38.22,-2.017 -40.32,-2.34 -1.675,-0.258 -11.476,0.515 -11.991,1.673 l -20.648,6.405 -54.468,-12.374 c -2.123,-1.927 -19.503,-0.448 -19.12,1.797 0.349,2.043 -64.157,26.357 -64.157,26.357 0,0 -29.208,-3.463 -31.135,-4.622 -1.918,-1.151 -15.415,-0.957 -16.436,0.898 -1.03,1.862 -55.522,16.288 -55.522,16.288 h 0.007 c 0,0 -54.509,-14.429 -55.535,-16.288 -1.025,-1.858 -14.538,-2.049 -16.466,-0.898 -1.927,1.159 -31.139,4.622 -31.139,4.622 0,0 -64.587,-24.315 -64.239,-26.357 0.384,-2.246 -17.017,-3.724 -19.132,-1.797 l -54.562,12.374 -20.657,-6.405 c -0.513,-1.158 -10.339,-1.934 -12.013,-1.673 -2.093,0.319 -41.686,2.34 -41.686,2.34" /></g><g
           transform="translate(663.1909,88.8794)"
           id="g70"><path
             id="path72"
             style="fill:none;stroke:#433f68;stroke-width:0.80000001;stroke-linecap:round;stroke-linejoin:round;stroke-miterlimit:10;stroke-dasharray:none;stroke-opacity:1"
             d="m 0,0 c 0,0 -38.37,-2.185 -40.645,-2.535 -1.814,-0.279 -11.474,0.558 -12.032,1.813 l -20.506,6.938 -54.521,-13.404 c -2.3,-2.089 -19.538,-0.486 -19.123,1.946 0.378,2.213 -62.261,28.554 -62.261,28.554 0,0 -29.217,-3.752 -31.305,-5.008 -2.079,-1.247 -15.406,-1.037 -16.512,0.972 -1.116,2.018 -55.243,17.646 -55.243,17.646 h 0.008 c 0,0 -54.143,-15.631 -55.255,-17.646 -1.11,-2.012 -14.454,-2.219 -16.542,-0.972 -2.088,1.256 -31.308,5.008 -31.308,5.008 0,0 -62.72,-26.342 -62.343,-28.554 0.416,-2.434 -16.842,-4.035 -19.135,-1.946 l -54.612,13.404 -20.515,-6.938 c -0.556,-1.255 -10.241,-2.096 -12.054,-1.813 -2.268,0.346 -42.02,2.535 -42.02,2.535" /></g><g
           transform="translate(662.7627,95.7163)"
           id="g74"><path
             id="path76"
             style="fill:none;stroke:#434169;stroke-width:0.80000001;stroke-linecap:round;stroke-linejoin:round;stroke-miterlimit:10;stroke-dasharray:none;stroke-opacity:1"
             d="m 0,0 c 0,0 -38.52,-2.353 -40.97,-2.73 -1.953,-0.301 -11.473,0.601 -12.073,1.953 L -73.407,6.694 -127.98,-7.742 c -2.478,-2.248 -19.573,-0.523 -19.126,2.096 0.407,2.384 -60.367,30.75 -60.367,30.75 0,0 -29.226,-4.04 -31.474,-5.392 -2.239,-1.343 -15.398,-1.116 -16.589,1.047 -1.201,2.173 -54.964,19.003 -54.964,19.003 h 0.011 c 0,0 -53.779,-16.833 -54.975,-19.003 -1.196,-2.167 -14.37,-2.39 -16.619,-1.047 -2.249,1.352 -31.477,5.392 -31.477,5.392 0,0 -60.853,-28.367 -60.448,-30.75 0.448,-2.62 -16.667,-4.344 -19.136,-2.096 l -54.665,14.436 -20.371,-7.471 c -0.599,-1.352 -10.142,-2.258 -12.095,-1.953 -2.443,0.372 -42.354,2.73 -42.354,2.73" /></g><g
           transform="translate(662.3345,102.5532)"
           id="g78"><path
             id="path80"
             style="fill:none;stroke:#43436b;stroke-width:0.80000001;stroke-linecap:round;stroke-linejoin:round;stroke-miterlimit:10;stroke-dasharray:none;stroke-opacity:1"
             d="m 0,0 c 0,0 -38.669,-2.521 -41.295,-2.925 -2.093,-0.322 -11.472,0.643 -12.115,2.092 l -20.221,8.005 -54.626,-15.466 c -2.654,-2.41 -19.608,-0.561 -19.129,2.246 0.436,2.553 -58.471,32.945 -58.471,32.945 0,0 -29.235,-4.329 -31.645,-5.777 -2.398,-1.439 -15.389,-1.196 -16.665,1.122 -1.287,2.328 -54.684,20.36 -54.684,20.36 h 0.013 c 0,0 -53.414,-18.036 -54.696,-20.36 -1.281,-2.322 -14.286,-2.561 -16.696,-1.122 -2.409,1.448 -31.645,5.777 -31.645,5.777 0,0 -58.986,-30.394 -58.552,-32.945 0.48,-2.808 -16.493,-4.656 -19.138,-2.246 l -54.716,15.466 -20.229,-8.005 c -0.641,-1.449 -10.044,-2.418 -12.136,-2.092 C -579.264,-2.526 -619.334,0 -619.334,0" /></g><g
           transform="translate(661.9062,109.3901)"
           id="g82"><path
             id="path84"
             style="fill:none;stroke:#43446c;stroke-width:0.80000001;stroke-linecap:round;stroke-linejoin:round;stroke-miterlimit:10;stroke-dasharray:none;stroke-opacity:1"
             d="m 0,0 c 0,0 -38.819,-2.689 -41.62,-3.12 -2.232,-0.344 -11.47,0.686 -12.156,2.231 L -73.855,7.65 -128.533,-8.848 c -2.831,-2.569 -19.643,-0.598 -19.132,2.396 0.465,2.724 -56.577,35.143 -56.577,35.143 0,0 -29.244,-4.618 -31.814,-6.163 -2.558,-1.535 -15.38,-1.276 -16.741,1.197 -1.373,2.483 -54.406,21.717 -54.406,21.717 h 0.015 c 0,0 -53.048,-19.238 -54.416,-21.717 -1.366,-2.477 -14.202,-2.732 -16.772,-1.197 -2.57,1.545 -31.814,6.163 -31.814,6.163 0,0 -57.12,-32.42 -56.657,-35.143 0.513,-2.995 -16.318,-4.965 -19.14,-2.396 L -540.754,7.65 -560.84,-0.889 c -0.684,-1.545 -9.946,-2.579 -12.178,-2.231 -2.791,0.425 -43.021,3.12 -43.021,3.12" /></g><g
           transform="translate(661.478,116.2266)"
           id="g86"><path
             id="path88"
             style="fill:none;stroke:#44466d;stroke-width:0.80000001;stroke-linecap:round;stroke-linejoin:round;stroke-miterlimit:10;stroke-dasharray:none;stroke-opacity:1"
             d="m 0,0 c 0,0 -38.969,-2.856 -41.944,-3.315 -2.372,-0.365 -11.47,0.73 -12.199,2.372 L -74.079,8.129 -128.81,-9.4 c -3.008,-2.731 -19.678,-0.636 -19.135,2.546 0.494,2.893 -54.682,37.338 -54.682,37.338 0,0 -29.253,-4.906 -31.983,-6.547 -2.718,-1.632 -15.372,-1.356 -16.818,1.271 -1.459,2.638 -54.126,23.075 -54.126,23.075 h 0.017 c 0,0 -52.683,-20.441 -54.136,-23.075 -1.452,-2.631 -14.119,-2.903 -16.849,-1.271 -2.731,1.641 -31.983,6.547 -31.983,6.547 0,0 -55.253,-34.446 -54.761,-37.338 0.544,-3.183 -16.144,-5.277 -19.142,-2.546 l -54.819,17.529 -19.943,-9.072 c -0.727,-1.642 -9.848,-2.742 -12.219,-2.372 C -572.355,-2.863 -612.744,0 -612.744,0" /></g><g
           transform="translate(661.0498,123.0635)"
           id="g90"><path
             id="path92"
             style="fill:none;stroke:#44486f;stroke-width:0.80000001;stroke-linecap:round;stroke-linejoin:round;stroke-miterlimit:10;stroke-dasharray:none;stroke-opacity:1"
             d="m 0,0 c 0,0 -39.119,-3.025 -42.27,-3.51 -2.511,-0.386 -11.467,0.773 -12.239,2.511 l -19.794,9.606 -54.783,-18.56 c -3.185,-2.891 -19.713,-0.673 -19.138,2.695 0.523,3.064 -52.788,39.535 -52.788,39.535 0,0 -29.261,-5.194 -32.153,-6.933 -2.877,-1.727 -15.362,-1.435 -16.894,1.347 -1.544,2.793 -53.846,24.432 -53.846,24.432 h 0.018 c 0,0 -52.318,-21.643 -53.856,-24.432 -1.537,-2.786 -14.035,-3.074 -16.926,-1.347 -2.891,1.739 -32.152,6.933 -32.152,6.933 0,0 -53.386,-36.472 -52.865,-39.535 0.577,-3.369 -15.969,-5.586 -19.143,-2.695 l -54.871,18.56 -19.8,-9.606 c -0.771,-1.738 -9.75,-2.902 -12.26,-2.511 -3.141,0.479 -43.689,3.51 -43.689,3.51" /></g><g
           transform="translate(660.6216,129.9004)"
           id="g94"><path
             id="path96"
             style="fill:none;stroke:#444970;stroke-width:0.80000001;stroke-linecap:round;stroke-linejoin:round;stroke-miterlimit:10;stroke-dasharray:none;stroke-opacity:1"
             d="m 0,0 c 0,0 -39.269,-3.193 -42.594,-3.705 -2.651,-0.408 -11.467,0.815 -12.282,2.65 l -19.651,10.14 -54.836,-19.591 c -3.362,-3.052 -19.748,-0.71 -19.14,2.845 0.551,3.234 -50.893,41.732 -50.893,41.732 0,0 -29.271,-5.484 -32.323,-7.319 -3.038,-1.823 -15.354,-1.515 -16.97,1.422 -1.631,2.948 -53.568,25.789 -53.568,25.789 h 0.021 c 0,0 -51.953,-22.845 -53.577,-25.789 -1.623,-2.942 -13.951,-3.245 -17.002,-1.422 -3.052,1.835 -32.321,7.319 -32.321,7.319 0,0 -51.519,-38.499 -50.969,-41.732 0.608,-3.557 -15.795,-5.897 -19.145,-2.845 l -54.922,19.591 -19.659,-10.14 c -0.812,-1.835 -9.65,-3.063 -12.301,-2.65 C -565.447,-3.2 -606.154,0 -606.154,0" /></g><g
           transform="translate(660.1934,136.7373)"
           id="g98"><path
             id="path100"
             style="fill:none;stroke:#454b72;stroke-width:0.80000001;stroke-linecap:round;stroke-linejoin:round;stroke-miterlimit:10;stroke-dasharray:none;stroke-opacity:1"
             d="m 0,0 c 0,0 -39.418,-3.361 -42.919,-3.9 -2.79,-0.43 -11.465,0.858 -12.323,2.79 L -74.751,9.563 -129.64,-11.059 c -3.539,-3.212 -19.782,-0.748 -19.143,2.995 0.581,3.404 -48.998,43.928 -48.998,43.928 0,0 -29.28,-5.772 -32.492,-7.704 -3.198,-1.919 -15.346,-1.595 -17.047,1.497 -1.716,3.103 -53.288,27.146 -53.288,27.146 h 0.023 c 0,0 -51.588,-24.048 -53.298,-27.146 -1.708,-3.096 -13.867,-3.416 -17.079,-1.497 -3.212,1.932 -32.489,7.704 -32.489,7.704 0,0 -49.652,-40.526 -49.073,-43.928 0.64,-3.745 -15.621,-6.207 -19.148,-2.995 L -526.645,9.563 -546.161,-1.11 c -0.855,-1.932 -9.552,-3.225 -12.342,-2.79 -3.489,0.532 -44.356,3.9 -44.356,3.9" /></g><g
           transform="translate(659.7651,143.5742)"
           id="g102"><path
             id="path104"
             style="fill:none;stroke:#454c73;stroke-width:0.80000001;stroke-linecap:round;stroke-linejoin:round;stroke-miterlimit:10;stroke-dasharray:none;stroke-opacity:1"
             d="m 0,0 c 0,0 -39.568,-3.529 -43.244,-4.095 -2.93,-0.451 -11.464,0.901 -12.365,2.929 l -19.366,11.208 -54.942,-21.654 c -3.715,-3.373 -19.816,-0.785 -19.145,3.144 0.61,3.575 -47.104,46.125 -47.104,46.125 0,0 -29.289,-6.061 -32.662,-8.089 -3.357,-2.015 -15.336,-1.674 -17.123,1.571 -1.801,3.259 -53.008,28.504 -53.008,28.504 h 0.024 c 0,0 -51.222,-25.25 -53.018,-28.504 -1.793,-3.25 -13.782,-3.586 -17.155,-1.571 -3.373,2.028 -32.659,8.089 -32.659,8.089 0,0 -47.784,-42.552 -47.177,-46.125 0.673,-3.931 -15.446,-6.517 -19.149,-3.144 l -55.025,21.654 -19.373,-11.208 c -0.898,-2.028 -9.454,-3.386 -12.383,-2.929 -3.664,0.558 -44.69,4.095 -44.69,4.095" /></g><g
           transform="translate(659.3369,150.4111)"
           id="g106"><path
             id="path108"
             style="fill:none;stroke:#454e74;stroke-width:0.80000001;stroke-linecap:round;stroke-linejoin:round;stroke-miterlimit:10;stroke-dasharray:none;stroke-opacity:1"
             d="m 0,0 c 0,0 -39.718,-3.697 -43.569,-4.29 -3.069,-0.472 -11.462,0.944 -12.406,3.069 l -19.224,11.741 -54.994,-22.685 c -3.892,-3.534 -19.852,-0.822 -19.149,3.294 0.639,3.745 -45.208,48.321 -45.208,48.321 0,0 -29.298,-6.349 -32.832,-8.474 -3.517,-2.111 -15.327,-1.754 -17.199,1.646 -1.888,3.414 -52.73,29.861 -52.73,29.861 h 0.027 c 0,0 -50.858,-26.452 -52.738,-29.861 -1.879,-3.405 -13.699,-3.757 -17.232,-1.646 -3.534,2.125 -32.828,8.474 -32.828,8.474 0,0 -45.918,-44.578 -45.281,-48.321 0.704,-4.119 -15.272,-6.828 -19.152,-3.294 l -55.076,22.685 -19.23,-11.741 c -0.941,-2.125 -9.356,-3.548 -12.425,-3.069 C -555.084,-3.705 -596.27,0 -596.27,0" /></g><g
           transform="translate(658.9087,157.248)"
           id="g110"><path
             id="path112"
             style="fill:none;stroke:#455076;stroke-width:0.80000001;stroke-linecap:round;stroke-linejoin:round;stroke-miterlimit:10;stroke-dasharray:none;stroke-opacity:1"
             d="m 0,0 c 0,0 -39.868,-3.865 -43.894,-4.485 -3.209,-0.494 -11.461,0.987 -12.448,3.208 l -19.081,12.275 -55.046,-23.716 c -4.07,-3.695 -19.887,-0.86 -19.153,3.444 0.669,3.915 -43.313,50.517 -43.313,50.517 0,0 -29.307,-6.638 -33.001,-8.859 -3.677,-2.207 -15.319,-1.834 -17.276,1.721 -1.974,3.569 -52.45,31.218 -52.45,31.218 h 0.029 c 0,0 -50.492,-27.654 -52.459,-31.218 -1.964,-3.561 -13.615,-3.928 -17.309,-1.721 -3.694,2.221 -32.996,8.859 -32.996,8.859 0,0 -44.051,-46.604 -43.386,-50.517 0.737,-4.306 -15.097,-7.139 -19.153,-3.444 l -55.127,23.716 -19.088,-12.275 c -0.984,-2.221 -9.258,-3.708 -12.466,-3.208 C -551.63,-3.874 -592.975,0 -592.975,0" /></g><g
           transform="translate(658.4805,164.085)"
           id="g114"><path
             id="path116"
             style="fill:none;stroke:#465177;stroke-width:0.80000001;stroke-linecap:round;stroke-linejoin:round;stroke-miterlimit:10;stroke-dasharray:none;stroke-opacity:1"
             d="m 0,0 c 0,0 -40.018,-4.033 -44.218,-4.68 -3.349,-0.515 -11.46,1.03 -12.49,3.347 l -18.939,12.809 -55.099,-24.747 c -4.247,-3.855 -19.922,-0.897 -19.155,3.594 0.697,4.085 -41.418,52.714 -41.418,52.714 0,0 -29.317,-6.927 -33.171,-9.245 -3.838,-2.303 -15.311,-1.914 -17.352,1.796 -2.06,3.724 -52.172,32.575 -52.172,32.575 h 0.031 c 0,0 -50.127,-28.856 -52.179,-32.575 -2.049,-3.715 -13.53,-4.099 -17.385,-1.796 -3.855,2.318 -33.165,9.245 -33.165,9.245 0,0 -42.184,-48.631 -41.49,-52.714 0.768,-4.493 -14.923,-7.449 -19.155,-3.594 l -55.179,24.747 -18.945,-12.809 c -1.027,-2.317 -9.16,-3.869 -12.507,-3.347 C -548.175,-4.042 -589.68,0 -589.68,0" /></g><g
           transform="translate(658.0522,170.9219)"
           id="g118"><path
             id="path120"
             style="fill:none;stroke:#465378;stroke-width:0.80000001;stroke-linecap:round;stroke-linejoin:round;stroke-miterlimit:10;stroke-dasharray:none;stroke-opacity:1"
             d="m 0,0 c 0,0 -40.167,-4.202 -44.543,-4.875 -3.488,-0.537 -11.459,1.073 -12.532,3.487 l -18.796,13.342 -55.151,-25.778 c -4.424,-4.016 -19.957,-0.935 -19.159,3.743 0.727,4.256 -39.523,54.911 -39.523,54.911 0,0 -29.325,-7.216 -33.341,-9.63 -3.997,-2.399 -15.301,-1.993 -17.428,1.87 -2.146,3.88 -51.892,33.933 -51.892,33.933 h 0.033 c 0,0 -49.762,-30.059 -51.899,-33.933 -2.135,-3.869 -13.447,-4.269 -17.463,-1.87 -4.015,2.414 -33.333,9.63 -33.333,9.63 0,0 -40.318,-50.657 -39.595,-54.911 0.801,-4.68 -14.748,-7.759 -19.156,-3.743 l -55.231,25.778 -18.803,-13.342 c -1.069,-2.414 -9.061,-4.031 -12.547,-3.487 C -544.721,-4.21 -586.385,0 -586.385,0" /></g><g
           transform="translate(657.624,177.7588)"
           id="g122"><path
             id="path124"
             style="fill:none;stroke:#46557a;stroke-width:0.80000001;stroke-linecap:round;stroke-linejoin:round;stroke-miterlimit:10;stroke-dasharray:none;stroke-opacity:1"
             d="m 0,0 c 0,0 -40.317,-4.37 -44.868,-5.07 -3.628,-0.558 -11.457,1.115 -12.573,3.626 l -18.654,13.876 -55.204,-26.809 c -4.601,-4.177 -19.992,-0.972 -19.161,3.893 0.755,4.426 -37.629,57.107 -37.629,57.107 0,0 -29.334,-7.504 -33.51,-10.015 -4.157,-2.495 -15.293,-2.073 -17.505,1.945 -2.231,4.035 -51.612,35.29 -51.612,35.29 h 0.034 c 0,0 -49.397,-31.261 -51.619,-35.29 -2.22,-4.025 -13.363,-4.44 -17.539,-1.945 -4.176,2.511 -33.502,10.015 -33.502,10.015 0,0 -38.451,-52.683 -37.699,-57.107 0.833,-4.868 -14.574,-8.07 -19.159,-3.893 l -55.282,26.809 -18.66,-13.876 c -1.112,-2.511 -8.962,-4.192 -12.589,-3.626 C -541.267,-4.379 -583.09,0 -583.09,0" /></g><g
           transform="translate(657.1958,184.5957)"
           id="g126"><path
             id="path128"
             style="fill:none;stroke:#47567b;stroke-width:0.80000001;stroke-linecap:round;stroke-linejoin:round;stroke-miterlimit:10;stroke-dasharray:none;stroke-opacity:1"
             d="m 0,0 c 0,0 -40.467,-4.538 -45.193,-5.265 -3.767,-0.58 -11.456,1.159 -12.615,3.766 l -18.511,14.409 -55.257,-27.84 c -4.777,-4.337 -20.026,-1.009 -19.164,4.043 0.785,4.596 -35.733,59.303 -35.733,59.303 0,0 -29.343,-7.792 -33.68,-10.4 -4.317,-2.591 -15.284,-2.153 -17.581,2.02 -2.317,4.19 -51.334,36.648 -51.334,36.648 h 0.037 c 0,0 -49.031,-32.464 -51.34,-36.648 -2.306,-4.18 -13.279,-4.611 -17.615,-2.02 -4.337,2.608 -33.672,10.4 -33.672,10.4 0,0 -36.583,-54.709 -35.802,-59.303 0.864,-5.055 -14.4,-8.38 -19.161,-4.043 l -55.334,27.84 -18.517,-14.409 c -1.155,-2.607 -8.864,-4.354 -12.63,-3.766 C -537.813,-4.547 -579.795,0 -579.795,0" /></g><g
           transform="translate(656.7681,191.4326)"
           id="g130"><path
             id="path132"
             style="fill:none;stroke:#47587d;stroke-width:0.80000001;stroke-linecap:round;stroke-linejoin:round;stroke-miterlimit:10;stroke-dasharray:none;stroke-opacity:1"
             d="m 0,0 c 0,0 -40.617,-4.706 -45.518,-5.46 -3.907,-0.602 -11.455,1.201 -12.656,3.905 l -18.369,14.943 -55.31,-28.871 c -4.954,-4.498 -20.061,-1.047 -19.167,4.192 0.814,4.767 -33.838,61.5 -33.838,61.5 0,0 -29.353,-8.081 -33.85,-10.785 -4.477,-2.687 -15.275,-2.233 -17.658,2.095 -2.402,4.345 -51.054,38.004 -51.054,38.004 h 0.039 c 0,0 -48.666,-33.666 -51.06,-38.004 -2.391,-4.334 -13.195,-4.782 -17.692,-2.095 -4.497,2.704 -33.84,10.785 -33.84,10.785 0,0 -34.717,-56.735 -33.907,-61.5 0.897,-5.241 -14.225,-8.69 -19.163,-4.192 l -55.385,28.871 -18.374,-14.943 C -518,-4.259 -525.568,-6.069 -529.474,-5.46 -534.359,-4.716 -576.5,0 -576.5,0" /></g><g
           transform="translate(656.3398,198.269)"
           id="g134"><path
             id="path136"
             style="fill:none;stroke:#475a7e;stroke-width:0.80000001;stroke-linecap:round;stroke-linejoin:round;stroke-miterlimit:10;stroke-dasharray:none;stroke-opacity:1"
             d="m 0,0 c 0,0 -40.767,-4.874 -45.843,-5.655 -4.046,-0.622 -11.453,1.244 -12.698,4.045 l -18.227,15.477 -55.361,-29.903 c -5.132,-4.658 -20.097,-1.084 -19.17,4.343 0.842,4.936 -31.944,63.695 -31.944,63.695 0,0 -29.361,-8.369 -34.019,-11.169 -4.637,-2.783 -15.267,-2.313 -17.734,2.169 -2.489,4.5 -50.775,39.362 -50.775,39.362 h 0.041 c 0,0 -48.302,-34.868 -50.781,-39.362 -2.476,-4.489 -13.111,-4.952 -17.769,-2.169 -4.657,2.8 -34.009,11.169 -34.009,11.169 0,0 -32.85,-58.761 -32.01,-63.695 0.928,-5.43 -14.052,-9.001 -19.165,-4.343 l -55.437,29.903 -18.231,-15.477 c -1.241,-2.801 -8.668,-4.676 -12.713,-4.045 -5.06,0.771 -47.361,5.655 -47.361,5.655" /></g><g
           transform="translate(655.9116,205.106)"
           id="g138"><path
             id="path140"
             style="fill:none;stroke:#475b7f;stroke-width:0.80000001;stroke-linecap:round;stroke-linejoin:round;stroke-miterlimit:10;stroke-dasharray:none;stroke-opacity:1"
             d="m 0,0 c 0,0 -40.917,-5.042 -46.168,-5.85 -4.186,-0.644 -11.452,1.288 -12.739,4.184 l -18.084,16.011 -55.415,-30.934 c -5.308,-4.819 -20.131,-1.121 -19.173,4.492 0.872,5.107 -30.048,65.893 -30.048,65.893 0,0 -29.371,-8.658 -34.19,-11.555 -4.796,-2.879 -15.258,-2.393 -17.81,2.244 -2.574,4.655 -50.496,40.719 -50.496,40.719 h 0.043 c 0,0 -47.936,-36.071 -50.501,-40.719 -2.562,-4.644 -13.026,-5.123 -17.845,-2.244 -4.819,2.897 -34.178,11.555 -34.178,11.555 0,0 -30.983,-60.788 -30.115,-65.893 0.961,-5.616 -13.877,-9.311 -19.167,-4.492 l -55.488,30.934 -18.088,-16.011 c -1.284,-2.896 -8.57,-4.836 -12.754,-4.184 -5.235,0.798 -47.695,5.85 -47.695,5.85" /></g><g
           transform="translate(655.4834,211.9429)"
           id="g142"><path
             id="path144"
             style="fill:none;stroke:#485d81;stroke-width:0.80000001;stroke-linecap:round;stroke-linejoin:round;stroke-miterlimit:10;stroke-dasharray:none;stroke-opacity:1"
             d="m 0,0 c 0,0 -41.066,-5.209 -46.493,-6.045 -4.325,-0.665 -11.45,1.33 -12.78,4.324 l -17.942,16.544 -55.468,-31.965 c -5.485,-4.979 -20.166,-1.158 -19.175,4.642 0.9,5.277 -28.154,68.089 -28.154,68.089 0,0 -29.38,-8.947 -34.359,-11.941 -4.956,-2.974 -15.249,-2.472 -17.886,2.32 -2.66,4.81 -50.217,42.076 -50.217,42.076 h 0.045 c 0,0 -47.571,-37.273 -50.221,-42.076 -2.647,-4.799 -12.943,-5.294 -17.923,-2.32 -4.979,2.994 -34.346,11.941 -34.346,11.941 0,0 -29.116,-62.815 -28.219,-68.089 0.992,-5.803 -13.702,-9.621 -19.169,-4.642 l -55.539,31.965 -17.946,-16.544 c -1.327,-2.994 -8.472,-4.998 -12.796,-4.324 C -523.996,-5.221 -566.616,0 -566.616,0" /></g><g
           transform="translate(655.0552,218.7798)"
           id="g146"><path
             id="path148"
             style="fill:none;stroke:#485e82;stroke-width:0.80000001;stroke-linecap:round;stroke-linejoin:round;stroke-miterlimit:10;stroke-dasharray:none;stroke-opacity:1"
             d="m 0,0 c 0,0 -41.216,-5.377 -46.817,-6.24 -4.465,-0.687 -11.45,1.373 -12.823,4.464 l -17.799,17.077 -55.52,-32.996 c -5.663,-5.14 -20.201,-1.196 -19.179,4.792 0.93,5.447 -26.259,70.285 -26.259,70.285 0,0 -29.388,-9.235 -34.528,-12.325 -5.117,-3.071 -15.241,-2.553 -17.963,2.393 -2.746,4.966 -49.937,43.434 -49.937,43.434 h 0.047 c 0,0 -47.206,-38.475 -49.942,-43.434 -2.733,-4.953 -12.859,-5.464 -17.999,-2.393 -5.139,3.09 -34.515,12.325 -34.515,12.325 0,0 -27.249,-64.84 -26.324,-70.285 1.025,-5.991 -13.527,-9.932 -19.17,-4.792 l -55.591,32.996 -17.804,-17.077 c -1.369,-3.091 -8.373,-5.16 -12.836,-4.464 -5.583,0.851 -48.362,6.24 -48.362,6.24" /></g><g
           transform="translate(654.627,225.6167)"
           id="g150"><path
             id="path152"
             style="fill:none;stroke:#486083;stroke-width:0.80000001;stroke-linecap:round;stroke-linejoin:round;stroke-miterlimit:10;stroke-dasharray:none;stroke-opacity:1"
             d="m 0,0 c 0,0 -41.366,-5.546 -47.142,-6.435 -4.605,-0.709 -11.449,1.416 -12.864,4.603 l -17.657,17.611 -55.573,-34.027 c -5.839,-5.3 -20.236,-1.233 -19.181,4.941 0.959,5.618 -24.365,72.482 -24.365,72.482 0,0 -29.397,-9.524 -34.697,-12.711 -5.277,-3.166 -15.232,-2.631 -18.04,2.469 -2.832,5.121 -49.658,44.792 -49.658,44.792 h 0.049 c 0,0 -46.841,-39.679 -49.662,-44.792 -2.818,-5.108 -12.775,-5.635 -18.075,-2.469 -5.301,3.187 -34.684,12.711 -34.684,12.711 0,0 -25.383,-66.867 -24.428,-72.482 1.057,-6.177 -13.354,-10.241 -19.172,-4.941 l -55.643,34.027 -17.661,-17.611 c -1.412,-3.187 -8.275,-5.321 -12.877,-4.603 C -517.088,-5.558 -560.026,0 -560.026,0" /></g><g
           transform="translate(654.1987,232.4536)"
           id="g154"><path
             id="path156"
             style="fill:none;stroke:#486285;stroke-width:0.80000001;stroke-linecap:round;stroke-linejoin:round;stroke-miterlimit:10;stroke-dasharray:none;stroke-opacity:1"
             d="m 0,0 c 0,0 -41.516,-5.714 -47.467,-6.63 -4.744,-0.73 -11.447,1.459 -12.906,4.742 l -17.514,18.145 -55.625,-35.058 c -6.016,-5.461 -20.271,-1.271 -19.185,5.092 0.989,5.787 -22.469,74.677 -22.469,74.677 0,0 -29.407,-9.812 -34.868,-13.095 -5.436,-3.263 -15.223,-2.712 -18.115,2.543 -2.918,5.276 -49.379,46.148 -49.379,46.148 h 0.051 c 0,0 -46.476,-40.88 -49.382,-46.148 -2.904,-5.263 -12.692,-5.806 -18.153,-2.543 -5.461,3.283 -34.852,13.095 -34.852,13.095 0,0 -23.516,-68.893 -22.532,-74.677 1.088,-6.366 -13.18,-10.553 -19.175,-5.092 l -55.694,35.058 -17.518,-18.145 c -1.455,-3.283 -8.176,-5.482 -12.919,-4.742 -5.932,0.904 -49.029,6.63 -49.029,6.63" /></g><g
           transform="translate(653.7705,239.2905)"
           id="g158"><path
             id="path160"
             style="fill:none;stroke:#496386;stroke-width:0.80000001;stroke-linecap:round;stroke-linejoin:round;stroke-miterlimit:10;stroke-dasharray:none;stroke-opacity:1"
             d="m 0,0 c 0,0 -41.666,-5.882 -47.792,-6.825 -4.883,-0.752 -11.446,1.502 -12.947,4.882 l -17.372,18.678 -55.678,-36.089 c -6.193,-5.622 -20.305,-1.308 -19.187,5.241 1.017,5.958 -20.575,76.874 -20.575,76.874 0,0 -29.415,-10.101 -35.037,-13.481 -5.596,-3.358 -15.214,-2.791 -18.192,2.619 -3.004,5.431 -49.099,47.506 -49.099,47.506 h 0.052 c 0,0 -46.11,-42.083 -49.102,-47.506 -2.989,-5.418 -12.607,-5.977 -18.229,-2.619 -5.622,3.38 -35.022,13.481 -35.022,13.481 0,0 -21.649,-70.919 -20.636,-76.874 1.121,-6.552 -13.004,-10.863 -19.176,-5.241 l -55.745,36.089 -17.376,-18.678 c -1.498,-3.38 -8.078,-5.643 -12.96,-4.882 -6.106,0.93 -49.363,6.825 -49.363,6.825" /></g><g
           transform="translate(653.3423,246.1274)"
           id="g162"><path
             id="path164"
             style="fill:none;stroke:#496588;stroke-width:0.80000001;stroke-linecap:round;stroke-linejoin:round;stroke-miterlimit:10;stroke-dasharray:none;stroke-opacity:1"
             d="m 0,0 c 0,0 -41.815,-6.05 -48.117,-7.02 -5.023,-0.773 -11.444,1.544 -12.989,5.021 l -17.229,19.212 -55.73,-37.12 c -6.371,-5.782 -20.341,-1.345 -19.191,5.391 1.047,6.128 -18.68,79.071 -18.68,79.071 0,0 -29.424,-10.39 -35.207,-13.867 -5.755,-3.454 -15.205,-2.871 -18.268,2.693 -3.089,5.587 -48.82,48.864 -48.82,48.864 h 0.055 c 0,0 -45.745,-43.286 -48.823,-48.864 -3.074,-5.572 -12.523,-6.147 -18.306,-2.693 -5.781,3.477 -35.19,13.867 -35.19,13.867 0,0 -19.782,-72.946 -18.74,-79.071 1.152,-6.74 -12.83,-11.173 -19.179,-5.391 l -55.796,37.12 -17.233,-19.212 c -1.54,-3.477 -7.98,-5.804 -13.001,-5.021 -6.281,0.957 -49.697,7.02 -49.697,7.02" /></g><g
           transform="translate(652.9141,252.9644)"
           id="g166"><path
             id="path168"
             style="fill:none;stroke:#496789;stroke-width:0.80000001;stroke-linecap:round;stroke-linejoin:round;stroke-miterlimit:10;stroke-dasharray:none;stroke-opacity:1"
             d="m 0,0 c 0,0 -41.965,-6.218 -48.442,-7.215 -5.162,-0.795 -11.443,1.588 -13.03,5.161 l -17.087,19.746 -55.783,-38.152 c -6.547,-5.943 -20.375,-1.383 -19.193,5.541 1.075,6.298 -16.785,81.267 -16.785,81.267 0,0 -29.434,-10.679 -35.377,-14.252 -5.915,-3.55 -15.197,-2.95 -18.345,2.768 -3.174,5.742 -48.541,50.221 -48.541,50.221 h 0.058 c 0,0 -45.38,-44.487 -48.543,-50.221 -3.161,-5.727 -12.44,-6.318 -18.383,-2.768 -5.943,3.573 -35.359,14.252 -35.359,14.252 0,0 -17.915,-74.972 -16.845,-81.267 1.185,-6.927 -12.656,-11.484 -19.18,-5.541 l -55.848,38.152 -17.09,-19.746 c -1.583,-3.573 -7.882,-5.967 -13.042,-5.161 C -503.271,-6.231 -546.846,0 -546.846,0" /></g><g
           transform="translate(652.4858,259.8013)"
           id="g170"><path
             id="path172"
             style="fill:none;stroke:#4a688a;stroke-width:0.80000001;stroke-linecap:round;stroke-linejoin:round;stroke-miterlimit:10;stroke-dasharray:none;stroke-opacity:1"
             d="m 0,0 c 0,0 -42.115,-6.386 -48.767,-7.41 -5.301,-0.816 -11.441,1.63 -13.072,5.3 l -16.944,20.28 -55.836,-39.183 c -6.723,-6.104 -20.41,-1.42 -19.196,5.69 1.105,6.469 -14.89,83.464 -14.89,83.464 0,0 -29.442,-10.967 -35.546,-14.637 -6.076,-3.646 -15.188,-3.03 -18.421,2.843 -3.261,5.897 -48.262,51.578 -48.262,51.578 h 0.059 c 0,0 -45.015,-45.69 -48.263,-51.578 -3.245,-5.882 -12.356,-6.489 -18.459,-2.843 -6.104,3.67 -35.528,14.637 -35.528,14.637 0,0 -16.048,-76.998 -14.949,-83.464 1.217,-7.114 -12.482,-11.794 -19.182,-5.69 l -55.9,39.183 -16.948,-20.28 c -1.625,-3.67 -7.783,-6.127 -13.083,-5.3 -6.63,1.01 -50.364,7.41 -50.364,7.41" /></g><g
           transform="translate(652.0576,266.6382)"
           id="g174"><path
             id="path176"
             style="fill:none;stroke:#4a6a8c;stroke-width:0.80000001;stroke-linecap:round;stroke-linejoin:round;stroke-miterlimit:10;stroke-dasharray:none;stroke-opacity:1"
             d="m 0,0 c 0,0 -42.265,-6.554 -49.091,-7.605 -5.442,-0.838 -11.441,1.673 -13.114,5.439 l -16.802,20.814 -55.888,-40.214 c -6.901,-6.264 -20.445,-1.457 -19.199,5.84 1.133,6.639 -12.995,85.66 -12.995,85.66 0,0 -29.452,-11.255 -35.716,-15.022 -6.236,-3.742 -15.18,-3.11 -18.498,2.918 -3.346,6.052 -47.982,52.935 -47.982,52.935 h 0.061 c 0,0 -44.65,-46.892 -47.984,-52.935 -3.331,-6.037 -12.271,-6.66 -18.536,-2.918 -6.264,3.767 -35.696,15.022 -35.696,15.022 0,0 -14.182,-79.024 -13.054,-85.66 1.249,-7.301 -12.306,-12.104 -19.183,-5.84 l -55.951,40.214 -16.806,-20.814 c -1.669,-3.766 -7.685,-6.288 -13.124,-5.439 C -496.362,-6.568 -540.256,0 -540.256,0" /></g><g
           transform="translate(651.6294,273.4746)"
           id="g178"><path
             id="path180"
             style="fill:none;stroke:#4a6c8d;stroke-width:0.80000001;stroke-linecap:round;stroke-linejoin:round;stroke-miterlimit:10;stroke-dasharray:none;stroke-opacity:1"
             d="m 0,0 c 0,0 -42.415,-6.722 -49.416,-7.8 -5.581,-0.859 -11.439,1.717 -13.156,5.579 l -16.659,21.347 -55.941,-41.245 c -7.078,-6.424 -20.48,-1.494 -19.202,5.99 1.163,6.809 -11.1,87.857 -11.1,87.857 0,0 -29.461,-11.544 -35.886,-15.407 -6.395,-3.839 -15.17,-3.191 -18.573,2.992 -3.433,6.208 -47.704,54.293 -47.704,54.293 h 0.064 c 0,0 -44.285,-48.095 -47.705,-54.293 -3.416,-6.192 -12.187,-6.831 -18.612,-2.992 -6.424,3.863 -35.866,15.407 -35.866,15.407 0,0 -12.314,-81.051 -11.157,-87.857 1.281,-7.488 -12.132,-12.414 -19.186,-5.99 l -56.002,41.245 -16.663,-21.347 c -1.712,-3.862 -7.586,-6.449 -13.165,-5.579 -6.979,1.064 -51.032,7.8 -51.032,7.8" /></g><g
           transform="translate(651.2012,280.3115)"
           id="g182"><path
             id="path184"
             style="fill:none;stroke:#4a6d8e;stroke-width:0.80000001;stroke-linecap:round;stroke-linejoin:round;stroke-miterlimit:10;stroke-dasharray:none;stroke-opacity:1"
             d="m 0,0 c 0,0 -42.564,-6.89 -49.741,-7.995 -5.72,-0.88 -11.438,1.76 -13.197,5.719 l -16.517,21.88 -55.993,-42.275 c -7.255,-6.586 -20.515,-1.533 -19.205,6.139 1.191,6.979 -9.206,90.053 -9.206,90.053 0,0 -29.47,-11.833 -36.055,-15.792 -6.555,-3.935 -15.162,-3.27 -18.65,3.067 -3.518,6.362 -47.424,55.65 -47.424,55.65 h 0.065 c 0,0 -43.919,-49.297 -47.424,-55.65 -3.502,-6.347 -12.104,-7.002 -18.69,-3.067 -6.585,3.959 -36.034,15.792 -36.034,15.792 0,0 -10.448,-83.077 -9.261,-90.053 1.313,-7.676 -11.959,-12.725 -19.188,-6.139 l -56.054,42.275 -16.52,-21.88 c -1.754,-3.959 -7.488,-6.611 -13.207,-5.719 -7.153,1.09 -51.365,7.995 -51.365,7.995" /></g><g
           transform="translate(650.7729,287.1484)"
           id="g186"><path
             id="path188"
             style="fill:none;stroke:#4b6f90;stroke-width:0.80000001;stroke-linecap:round;stroke-linejoin:round;stroke-miterlimit:10;stroke-dasharray:none;stroke-opacity:1"
             d="m 0,0 c 0,0 -42.714,-7.058 -50.066,-8.19 -5.86,-0.902 -11.436,1.802 -13.239,5.858 l -16.374,22.415 -56.046,-43.308 c -7.432,-6.746 -20.549,-1.569 -19.208,6.289 1.221,7.15 -7.31,92.25 -7.31,92.25 0,0 -29.479,-12.121 -36.225,-16.177 -6.715,-4.031 -15.154,-3.35 -18.726,3.142 -3.605,6.517 -47.145,57.007 -47.145,57.007 h 0.067 c 0,0 -43.555,-50.499 -47.145,-57.007 -3.587,-6.502 -12.02,-7.173 -18.766,-3.142 -6.746,4.056 -36.203,16.177 -36.203,16.177 0,0 -8.581,-85.104 -7.365,-92.25 1.344,-7.862 -11.785,-13.035 -19.19,-6.289 l -56.106,43.308 -16.377,-22.415 c -1.797,-4.056 -7.39,-6.772 -13.248,-5.858 C -486,-7.073 -530.371,0 -530.371,0" /></g><g
           transform="translate(650.3447,293.9854)"
           id="g190"><path
             id="path192"
             style="fill:none;stroke:#4b7091;stroke-width:0.80000001;stroke-linecap:round;stroke-linejoin:round;stroke-miterlimit:10;stroke-dasharray:none;stroke-opacity:1"
             d="m 0,0 c 0,0 -42.864,-7.226 -50.391,-8.385 -5.999,-0.923 -11.435,1.845 -13.28,5.998 l -16.232,22.948 -56.098,-44.338 c -7.609,-6.907 -20.585,-1.608 -19.211,6.439 1.249,7.319 -5.416,94.445 -5.416,94.445 0,0 -29.488,-12.41 -36.394,-16.563 -6.875,-4.126 -15.145,-3.429 -18.803,3.217 -3.69,6.673 -46.866,58.365 -46.866,58.365 h 0.069 c 0,0 -43.189,-51.702 -46.865,-58.365 -3.672,-6.656 -11.935,-7.343 -18.842,-3.217 -6.907,4.153 -36.372,16.563 -36.372,16.563 0,0 -6.714,-87.129 -5.47,-94.445 1.377,-8.051 -11.609,-13.346 -19.192,-6.439 l -56.157,44.338 -16.234,-22.948 c -1.84,-4.153 -7.292,-6.934 -13.289,-5.998 C -482.545,-7.242 -527.076,0 -527.076,0" /></g><g
           transform="translate(649.917,300.8223)"
           id="g194"><path
             id="path196"
             style="fill:none;stroke:#4b7293;stroke-width:0.80000001;stroke-linecap:round;stroke-linejoin:round;stroke-miterlimit:10;stroke-dasharray:none;stroke-opacity:1"
             d="m 0,0 c 0,0 -43.015,-7.395 -50.716,-8.58 -6.139,-0.945 -11.434,1.888 -13.322,6.137 l -16.089,23.482 -56.152,-45.37 c -7.785,-7.067 -20.619,-1.644 -19.213,6.589 1.279,7.49 -3.521,96.642 -3.521,96.642 0,0 -29.497,-12.698 -36.564,-16.947 -7.035,-4.223 -15.136,-3.51 -18.879,3.291 -3.776,6.828 -46.586,59.722 -46.586,59.722 h 0.07 c 0,0 -42.824,-52.904 -46.585,-59.722 -3.757,-6.811 -11.852,-7.514 -18.919,-3.291 -7.067,4.249 -36.541,16.947 -36.541,16.947 0,0 -4.847,-89.155 -3.574,-96.642 1.409,-8.237 -11.435,-13.656 -19.194,-6.589 l -56.208,45.37 -16.092,-23.482 c -1.883,-4.249 -7.193,-7.095 -13.33,-6.137 -7.677,1.17 -52.367,8.58 -52.367,8.58" /></g><g
           transform="translate(649.4888,307.6592)"
           id="g198"><path
             id="path200"
             style="fill:none;stroke:#4c7494;stroke-width:0.80000001;stroke-linecap:round;stroke-linejoin:round;stroke-miterlimit:10;stroke-dasharray:none;stroke-opacity:1"
             d="m 0,0 c 0,0 -43.164,-7.562 -51.041,-8.775 -6.278,-0.966 -11.433,1.931 -13.363,6.276 l -15.948,24.016 -56.203,-46.4 c -7.963,-7.228 -20.654,-1.682 -19.217,6.738 1.308,7.66 -1.626,98.838 -1.626,98.838 0,0 -29.506,-12.987 -36.734,-17.333 -7.194,-4.318 -15.127,-3.589 -18.955,3.367 -3.862,6.983 -46.307,61.079 -46.307,61.079 h 0.073 c 0,0 -42.459,-54.106 -46.306,-61.079 -3.843,-6.966 -11.768,-7.685 -18.996,-3.367 -7.227,4.346 -36.709,17.333 -36.709,17.333 0,0 -2.98,-91.182 -1.678,-98.838 1.441,-8.424 -11.261,-13.966 -19.196,-6.738 l -56.26,46.4 -15.949,-24.016 c -1.925,-4.345 -7.095,-7.255 -13.371,-6.276 C -475.638,-7.579 -520.487,0 -520.487,0" /></g><g
           transform="translate(649.0605,314.4961)"
           id="g202"><path
             id="path204"
             style="fill:none;stroke:#4c7595;stroke-width:0.80000001;stroke-linecap:round;stroke-linejoin:round;stroke-miterlimit:10;stroke-dasharray:none;stroke-opacity:1"
             d="m 0,0 c 0,0 -43.314,-7.73 -51.366,-8.97 -6.418,-0.988 -11.431,1.974 -13.405,6.416 l -15.804,24.549 -56.257,-47.432 c -8.139,-7.388 -20.689,-1.719 -19.219,6.889 1.337,7.83 0.269,101.034 0.269,101.034 0,0 -29.515,-13.275 -36.904,-17.717 -7.355,-4.415 -15.118,-3.669 -19.032,3.441 -3.947,7.138 -46.028,62.436 -46.028,62.436 h 0.076 c 0,0 -42.094,-55.309 -46.026,-62.436 -3.929,-7.121 -11.684,-7.856 -19.073,-3.441 -7.388,4.442 -36.878,17.717 -36.878,17.717 0,0 -1.114,-93.208 0.217,-101.034 1.473,-8.612 -11.086,-14.277 -19.197,-6.889 l -56.311,47.432 -15.808,-24.549 c -1.967,-4.442 -6.996,-7.417 -13.412,-6.416 -8.025,1.223 -53.034,8.97 -53.034,8.97" /></g><g
           transform="translate(648.6323,321.333)"
           id="g206"><path
             id="path208"
             style="fill:none;stroke:#4c7797;stroke-width:0.80000001;stroke-linecap:round;stroke-linejoin:round;stroke-miterlimit:10;stroke-dasharray:none;stroke-opacity:1"
             d="m 0,0 c 0,0 -43.464,-7.898 -51.69,-9.165 -6.558,-1.009 -11.431,2.017 -13.447,6.556 l -15.662,25.082 -56.309,-48.463 c -8.317,-7.549 -20.725,-1.756 -19.223,7.038 1.366,8.001 2.164,103.232 2.164,103.232 0,0 -29.524,-13.565 -37.073,-18.103 -7.515,-4.51 -15.11,-3.749 -19.108,3.515 -4.033,7.294 -45.749,63.794 -45.749,63.794 h 0.077 c 0,0 -41.729,-56.511 -45.746,-63.794 -4.014,-7.275 -11.6,-8.025 -19.15,-3.515 -7.548,4.538 -37.046,18.103 -37.046,18.103 0,0 0.753,-95.235 2.113,-103.232 1.505,-8.798 -10.912,-14.587 -19.199,-7.038 l -56.363,48.463 -15.665,-25.082 c -2.01,-4.539 -6.898,-7.579 -13.453,-6.556 -8.2,1.249 -53.368,9.165 -53.368,9.165" /></g><g
           transform="translate(648.2041,328.1699)"
           id="g210"><path
             id="path212"
             style="fill:none;stroke:#4c7998;stroke-width:0.80000001;stroke-linecap:round;stroke-linejoin:round;stroke-miterlimit:10;stroke-dasharray:none;stroke-opacity:1"
             d="m 0,0 c 0,0 -43.614,-8.067 -52.015,-9.36 -6.697,-1.031 -11.429,2.06 -13.489,6.695 l -15.519,25.617 -56.362,-49.494 c -8.493,-7.71 -20.759,-1.794 -19.225,7.187 1.395,8.171 4.058,105.428 4.058,105.428 0,0 -29.532,-13.853 -37.242,-18.489 -7.675,-4.605 -15.102,-3.828 -19.185,3.591 -4.119,7.449 -45.469,65.152 -45.469,65.152 h 0.079 c 0,0 -41.363,-57.714 -45.467,-65.152 -4.099,-7.43 -11.516,-8.196 -19.226,-3.591 -7.709,4.636 -37.216,18.489 -37.216,18.489 0,0 2.621,-97.261 4.009,-105.428 1.538,-8.986 -10.737,-14.897 -19.201,-7.187 l -56.414,49.494 -15.522,-25.617 c -2.053,-4.635 -6.799,-7.74 -13.494,-6.695 -8.375,1.276 -53.702,9.36 -53.702,9.36" /></g><g
           transform="translate(647.7759,335.0068)"
           id="g214"><path
             id="path216"
             style="fill:none;stroke:#4d7a99;stroke-width:0.80000001;stroke-linecap:round;stroke-linejoin:round;stroke-miterlimit:10;stroke-dasharray:none;stroke-opacity:1"
             d="m 0,0 c 0,0 -43.764,-8.235 -52.34,-9.555 -6.837,-1.052 -11.428,2.102 -13.53,6.834 l -15.377,26.151 -56.415,-50.526 c -8.67,-7.87 -20.793,-1.831 -19.228,7.338 1.424,8.341 5.953,107.624 5.953,107.624 0,0 -29.542,-14.141 -37.412,-18.873 -7.834,-4.702 -15.092,-3.909 -19.26,3.665 -4.205,7.604 -45.191,66.509 -45.191,66.509 h 0.082 c 0,0 -40.999,-58.917 -45.188,-66.509 -4.184,-7.585 -11.431,-8.367 -19.302,-3.665 -7.87,4.732 -37.385,18.873 -37.385,18.873 0,0 4.488,-99.287 5.905,-107.624 1.569,-9.174 -10.563,-15.208 -19.203,-7.338 l -56.466,50.526 -15.379,-26.151 c -2.096,-4.732 -6.701,-7.901 -13.535,-6.834 -8.55,1.303 -54.036,9.555 -54.036,9.555" /></g><g
           transform="translate(647.3477,341.8437)"
           id="g218"><path
             id="path220"
             style="fill:none;stroke:#4d7c9b;stroke-width:0.80000001;stroke-linecap:round;stroke-linejoin:round;stroke-miterlimit:10;stroke-dasharray:none;stroke-opacity:1"
             d="m 0,0 c 0,0 -43.913,-8.403 -52.665,-9.75 -6.976,-1.074 -11.426,2.145 -13.572,6.974 l -15.234,26.684 -56.467,-51.556 c -8.847,-8.032 -20.829,-1.87 -19.231,7.486 1.453,8.512 7.848,109.821 7.848,109.821 0,0 -29.551,-14.43 -37.582,-19.259 -7.994,-4.797 -15.083,-3.987 -19.337,3.741 -4.291,7.759 -44.911,67.866 -44.911,67.866 h 0.083 c 0,0 -40.633,-60.119 -44.908,-67.866 -4.27,-7.74 -11.347,-8.538 -19.378,-3.741 -8.031,4.829 -37.554,19.259 -37.554,19.259 0,0 6.354,-101.313 7.801,-109.821 1.601,-9.36 -10.389,-15.518 -19.205,-7.486 l -56.518,51.556 -15.236,-26.684 c -2.139,-4.829 -6.603,-8.062 -13.577,-6.974 -8.723,1.329 -54.369,9.75 -54.369,9.75" /></g><g
           transform="translate(646.9194,348.6802)"
           id="g222"><path
             id="path224"
             style="fill:none;stroke:#4d7e9c;stroke-width:0.80000001;stroke-linecap:round;stroke-linejoin:round;stroke-miterlimit:10;stroke-dasharray:none;stroke-opacity:1"
             d="m 0,0 c 0,0 -44.063,-8.57 -52.99,-9.945 -7.115,-1.095 -11.425,2.189 -13.613,7.114 l -15.092,27.217 -56.52,-52.587 c -9.024,-8.192 -20.863,-1.906 -19.234,7.637 1.482,8.681 9.743,112.017 9.743,112.017 0,0 -29.56,-14.719 -37.752,-19.644 -8.153,-4.894 -15.074,-4.068 -19.413,3.815 -4.376,7.915 -44.631,69.223 -44.631,69.223 h 0.085 c 0,0 -40.269,-61.321 -44.628,-69.223 -4.355,-7.895 -11.264,-8.709 -19.456,-3.815 -8.191,4.925 -37.723,19.644 -37.723,19.644 0,0 8.222,-103.34 9.697,-112.017 1.633,-9.548 -10.214,-15.829 -19.207,-7.637 l -56.568,52.587 -15.094,-27.217 c -2.182,-4.925 -6.505,-8.224 -13.618,-7.114 C -454.912,-8.589 -500.717,0 -500.717,0" /></g><g
           transform="translate(646.4912,355.5171)"
           id="g226"><path
             id="path228"
             style="fill:none;stroke:#4d7f9e;stroke-width:0.80000001;stroke-linecap:round;stroke-linejoin:round;stroke-miterlimit:10;stroke-dasharray:none;stroke-opacity:1"
             d="m 0,0 c 0,0 -44.213,-8.739 -53.314,-10.14 -7.256,-1.116 -11.424,2.231 -13.656,7.253 l -14.949,27.751 -56.572,-53.618 c -9.201,-8.352 -20.899,-1.944 -19.238,7.786 1.512,8.852 11.639,114.214 11.639,114.214 0,0 -29.569,-15.007 -37.922,-20.029 -8.314,-4.989 -15.066,-4.147 -19.489,3.89 -4.463,8.069 -44.353,70.58 -44.353,70.58 h 0.087 c 0,0 -39.902,-62.522 -44.348,-70.58 -4.441,-8.049 -11.18,-8.879 -19.532,-3.89 -8.352,5.022 -37.892,20.029 -37.892,20.029 0,0 10.088,-105.366 11.593,-114.214 1.665,-9.734 -10.04,-16.138 -19.209,-7.786 l -56.62,53.618 -14.951,-27.751 c -2.225,-5.022 -6.406,-8.384 -13.659,-7.253 C -451.458,-8.757 -497.422,0 -497.422,0" /></g><g
           transform="translate(646.063,362.354)"
           id="g230"><path
             id="path232"
             style="fill:none;stroke:#4e819f;stroke-width:0.80000001;stroke-linecap:round;stroke-linejoin:round;stroke-miterlimit:10;stroke-dasharray:none;stroke-opacity:1"
             d="m 0,0 c 0,0 -44.363,-8.907 -53.64,-10.335 -7.394,-1.138 -11.422,2.274 -13.696,7.393 l -14.807,28.284 -56.625,-54.649 c -9.378,-8.513 -20.933,-1.981 -19.24,7.936 1.54,9.022 13.533,116.41 13.533,116.41 0,0 -29.578,-15.296 -38.091,-20.414 -8.474,-5.085 -15.057,-4.227 -19.566,3.965 -4.548,8.224 -44.074,71.937 -44.074,71.937 h 0.09 c 0,0 -39.538,-63.725 -44.069,-71.937 -4.526,-8.205 -11.096,-9.05 -19.608,-3.965 -8.513,5.118 -38.061,20.414 -38.061,20.414 0,0 11.955,-107.392 13.488,-116.41 1.698,-9.922 -9.865,-16.449 -19.211,-7.936 l -56.671,54.649 -14.809,-28.284 c -2.267,-5.119 -6.307,-8.546 -13.7,-7.393 C -448.004,-8.926 -494.127,0 -494.127,0" /></g><g
           transform="translate(645.6348,369.1909)"
           id="g234"><path
             id="path236"
             style="fill:none;stroke:#4e83a0;stroke-width:0.80000001;stroke-linecap:round;stroke-linejoin:round;stroke-miterlimit:10;stroke-dasharray:none;stroke-opacity:1"
             d="m 0,0 c 0,0 -44.512,-9.075 -53.964,-10.53 -7.535,-1.159 -11.421,2.317 -13.739,7.532 l -14.664,28.819 -56.677,-55.681 c -9.556,-8.674 -20.969,-2.018 -19.244,8.086 1.57,9.192 15.429,118.606 15.429,118.606 0,0 -29.588,-15.584 -38.261,-20.799 -8.634,-5.181 -15.049,-4.307 -19.643,4.039 -4.633,8.38 -43.794,73.296 -43.794,73.296 h 0.092 c 0,0 -39.173,-64.928 -43.789,-73.296 -4.612,-8.359 -11.013,-9.22 -19.686,-4.039 -8.673,5.215 -38.229,20.799 -38.229,20.799 0,0 13.822,-109.418 15.384,-118.606 1.729,-10.109 -9.691,-16.76 -19.213,-8.086 l -56.723,55.681 -14.666,-28.819 c -2.31,-5.215 -6.209,-8.707 -13.741,-7.532 C -444.549,-9.094 -490.833,0 -490.833,0" /></g><g
           transform="translate(645.2065,376.0278)"
           id="g238"><path
             id="path240"
             style="fill:none;stroke:#4e84a2;stroke-width:0.80000001;stroke-linecap:round;stroke-linejoin:round;stroke-miterlimit:10;stroke-dasharray:none;stroke-opacity:1"
             d="m 0,0 c 0,0 -44.662,-9.243 -54.289,-10.725 -7.674,-1.181 -11.42,2.36 -13.78,7.671 l -14.522,29.353 -56.73,-56.712 c -9.732,-8.835 -21.003,-2.056 -19.246,8.236 1.598,9.362 17.323,120.802 17.323,120.802 0,0 -29.596,-15.873 -38.431,-21.184 -8.793,-5.277 -15.039,-4.387 -19.718,4.114 -4.72,8.535 -43.515,74.653 -43.515,74.653 h 0.094 c 0,0 -38.808,-66.13 -43.51,-74.653 -4.697,-8.513 -10.928,-9.391 -19.762,-4.114 -8.834,5.311 -38.398,21.184 -38.398,21.184 0,0 15.688,-111.444 17.28,-120.802 1.761,-10.297 -9.517,-17.071 -19.215,-8.236 l -56.774,56.712 -14.524,-29.353 c -2.353,-5.311 -6.111,-8.868 -13.783,-7.671 C -441.095,-9.263 -487.538,0 -487.538,0" /></g><g
           transform="translate(644.7783,382.8647)"
           id="g242"><path
             id="path244"
             style="fill:none;stroke:#4f86a3;stroke-width:0.80000001;stroke-linecap:round;stroke-linejoin:round;stroke-miterlimit:10;stroke-dasharray:none;stroke-opacity:1"
             d="m 0,0 c 0,0 -44.812,-9.411 -54.614,-10.92 -7.813,-1.203 -11.419,2.403 -13.822,7.811 l -14.379,29.886 -56.783,-57.743 c -9.908,-8.995 -21.037,-2.093 -19.249,8.385 1.628,9.533 19.218,122.999 19.218,122.999 0,0 -29.605,-16.161 -38.6,-21.569 -8.953,-5.373 -15.031,-4.467 -19.795,4.189 -4.806,8.69 -43.236,76.01 -43.236,76.01 h 0.096 c 0,0 -38.442,-67.333 -43.23,-76.01 -4.782,-8.668 -10.844,-9.562 -19.839,-4.189 -8.994,5.408 -38.566,21.569 -38.566,21.569 0,0 17.555,-113.471 19.175,-122.999 1.794,-10.483 -9.342,-17.38 -19.216,-8.385 l -56.827,57.743 -14.38,-29.886 c -2.396,-5.408 -6.013,-9.03 -13.824,-7.811 -9.77,1.489 -56.372,10.92 -56.372,10.92" /></g><g
           transform="translate(644.3501,389.7017)"
           id="g246"><path
             id="path248"
             style="fill:none;stroke:#4f87a4;stroke-width:0.80000001;stroke-linecap:round;stroke-linejoin:round;stroke-miterlimit:10;stroke-dasharray:none;stroke-opacity:1"
             d="m 0,0 c 0,0 -44.962,-9.579 -54.939,-11.115 -7.953,-1.224 -11.417,2.446 -13.863,7.95 l -14.237,30.42 -56.835,-58.774 c -10.086,-9.156 -21.073,-2.13 -19.252,8.535 1.657,9.703 21.112,125.195 21.112,125.195 0,0 -29.614,-16.45 -38.769,-21.954 -9.113,-5.469 -15.023,-4.547 -19.872,4.264 -4.891,8.845 -42.956,77.367 -42.956,77.367 h 0.098 c 0,0 -38.078,-68.535 -42.95,-77.367 -4.868,-8.824 -10.761,-9.733 -19.916,-4.264 -9.155,5.504 -38.736,21.954 -38.736,21.954 0,0 19.423,-115.497 21.072,-125.195 1.825,-10.671 -9.168,-17.691 -19.219,-8.535 l -56.877,58.774 -14.238,-30.42 c -2.439,-5.504 -5.915,-9.19 -13.865,-7.95 C -434.187,-9.6 -480.948,0 -480.948,0" /></g><g
           transform="translate(643.9219,396.5386)"
           id="g250"><path
             id="path252"
             style="fill:none;stroke:#4f89a6;stroke-width:0.80000001;stroke-linecap:round;stroke-linejoin:round;stroke-miterlimit:10;stroke-dasharray:none;stroke-opacity:1"
             d="m 0,0 c 0,0 -45.112,-9.747 -55.264,-11.31 -8.092,-1.246 -11.416,2.489 -13.904,8.09 l -14.095,30.953 -56.888,-59.805 c -10.263,-9.316 -21.107,-2.168 -19.254,8.685 1.685,9.873 23.007,127.392 23.007,127.392 0,0 -29.623,-16.739 -38.939,-22.34 -9.274,-5.565 -15.014,-4.626 -19.948,4.338 -4.977,9.001 -42.677,78.725 -42.677,78.725 h 0.099 c 0,0 -37.712,-69.737 -42.67,-78.725 -4.953,-8.978 -10.676,-9.903 -19.992,-4.338 -9.316,5.601 -38.905,22.34 -38.905,22.34 0,0 21.289,-117.524 22.968,-127.392 1.857,-10.858 -8.994,-18.001 -19.221,-8.685 l -56.929,59.805 -14.095,-30.953 c -2.481,-5.601 -5.816,-9.352 -13.906,-8.09 -10.119,1.542 -57.04,11.31 -57.04,11.31" /></g><g
           transform="translate(643.4937,403.3755)"
           id="g254"><path
             id="path256"
             style="fill:none;stroke:#4f8ba7;stroke-width:0.80000001;stroke-linecap:round;stroke-linejoin:round;stroke-miterlimit:10;stroke-dasharray:none;stroke-opacity:1"
             d="m 0,0 c 0,0 -45.261,-9.916 -55.588,-11.505 -8.232,-1.267 -11.415,2.531 -13.947,8.229 l -13.952,31.487 -56.94,-60.836 c -10.44,-9.477 -21.143,-2.206 -19.258,8.834 1.715,10.044 24.902,129.589 24.902,129.589 0,0 -29.632,-17.027 -39.109,-22.725 -9.433,-5.661 -15.004,-4.706 -20.024,4.413 -5.063,9.156 -42.398,80.082 -42.398,80.082 h 0.102 c 0,0 -37.347,-70.94 -42.391,-80.082 -5.039,-9.132 -10.592,-10.074 -20.069,-4.413 -9.476,5.698 -39.073,22.725 -39.073,22.725 0,0 23.156,-119.55 24.863,-129.589 1.89,-11.044 -8.819,-18.311 -19.222,-8.834 l -56.98,60.836 -13.953,-31.487 c -2.525,-5.698 -5.718,-9.513 -13.947,-8.229 C -427.278,-9.937 -474.358,0 -474.358,0" /></g><g
           transform="translate(643.0659,410.2124)"
           id="g258"><path
             id="path260"
             style="fill:none;stroke:#508ca9;stroke-width:0.80000001;stroke-linecap:round;stroke-linejoin:round;stroke-miterlimit:10;stroke-dasharray:none;stroke-opacity:1"
             d="m 0,0 c 0,0 -45.412,-10.083 -55.914,-11.7 -8.371,-1.289 -11.413,2.575 -13.988,8.368 l -13.809,32.021 -56.994,-61.867 c -10.616,-9.637 -21.177,-2.243 -19.26,8.984 1.744,10.214 26.797,131.785 26.797,131.785 0,0 -29.641,-17.316 -39.279,-23.111 -9.593,-5.756 -14.996,-4.785 -20.1,4.489 -5.149,9.311 -42.119,81.439 -42.119,81.439 h 0.104 c 0,0 -36.982,-72.142 -42.111,-81.439 -5.124,-9.288 -10.509,-10.245 -20.146,-4.489 -9.637,5.795 -39.242,23.111 -39.242,23.111 0,0 25.023,-121.576 26.759,-131.785 1.922,-11.232 -8.644,-18.621 -19.224,-8.984 l -57.032,61.867 -13.81,-32.021 c -2.567,-5.793 -5.62,-9.674 -13.988,-8.368 -10.469,1.595 -57.707,11.7 -57.707,11.7" /></g><g
           transform="translate(642.6377,417.0493)"
           id="g262"><path
             id="path264"
             style="fill:none;stroke:#508eaa;stroke-width:0.80000001;stroke-linecap:round;stroke-linejoin:round;stroke-miterlimit:10;stroke-dasharray:none;stroke-opacity:1"
             d="m 0,0 c 0,0 -45.558,-10.273 -56.239,-11.895 -8.508,-1.328 -11.412,2.617 -14.029,8.508 l -13.668,32.554 -57.045,-62.898 c -10.793,-9.798 -21.18,-2.286 -19.264,9.134 1.803,10.379 28.692,133.981 28.692,133.981 0,0 -29.65,-17.605 -39.448,-23.495 -9.752,-5.853 -14.987,-4.866 -20.177,4.563 -5.234,9.466 -41.839,82.796 -41.839,82.796 h 0.105 c 0,0 -36.642,-73.33 -41.831,-82.796 -5.235,-9.429 -10.424,-10.416 -20.222,-4.563 -9.798,5.89 -39.411,23.495 -39.411,23.495 0,0 26.89,-123.602 28.655,-133.981 1.953,-11.42 -8.47,-18.932 -19.227,-9.134 l -57.083,62.898 -13.667,-32.554 c -2.61,-5.891 -5.521,-9.836 -14.03,-8.508 C -420.37,-10.273 -467.769,0 -467.769,0" /></g></g></g></g></svg>